# xmcd CD database file
#
# Track frame offsets:
#	193
#	24560
#	44785
#	62695
#
# Disc length: 1350 seconds
#
# Revision: 0
# Processed by: cddbd v1.5.2PL0 Copyright (c) Steve Scherf et al.
# Submitted via: CDex 1.70beta2
#
DISCID=33054404
DTITLE=Jack Bruce - Ships in the night
DYEAR=1993
DGENRE=Blues
TTITLE0=Ships in the night
TTITLE1=Willpower
TTITLE2=Waiting on a word
TTITLE3=Interview with Jack Bruce
EXTD=YEAR: 1993
EXTT0=
EXTT1=
EXTT2=
EXTT3=
PLAYORDER=
